# xmcd
#
# Track frame offsets:
#	151
#	12066
#	26129
#	44328
#	62062
#	79949
#	97224
#	114256
#	134406
#	148349
#	180110
#	193037
#	204678
#	220283
#	238392
#	261198
#	279395
#	296780
#	316931
#	338396
#
# Disc length: 4799 seconds
#
# Revision: 0
# Processed by: cddbd v1.5PL3 Copyright (c) Steve Scherf et al.
# Submitted via: dBpowerAMP V4.0
#
DISCID=3312bd14
DTITLE=Alan Jackson - Greatest hits volume 2
DYEAR=1900
DGENRE=Country
TTITLE0=Little Bitty
TTITLE1=Everything I love
TTITLE2=Who's cheatin who
TTITLE3=There goes
TTITLE4=I'll go on loveing you
TTITLE5=Right on the Money
TTITLE6=Gone Crazy
TTITLE7=Little Man
TTITLE8=Pop A Top
TTITLE9=The Blues Man
TTITLE10=It Must Be Love
TTITLE11=WWW.Memory
TTITLE12=When Somebody Loves YOu
TTITLE13=Where I Come From
TTITLE14=Where Were You
TTITLE15=Drive
TTITLE16=It's Five
TTITLE17=Remember When
TTITLE18=Extras
TTITLE19=More extras
EXTD=
EXTT0=
EXTT1=
EXTT2=
EXTT3=
EXTT4=
EXTT5=
EXTT6=
EXTT7=
EXTT8=
EXTT9=
EXTT10=
EXTT11=
EXTT12=
EXTT13=
EXTT14=
EXTT15=
EXTT16=
EXTT17=
EXTT18=
EXTT19=
PLAYORDER=
